<?xml version="1.0" standalone="no"?>
<!DOCTYPE svg PUBLIC "-//W3C//DTD SVG 20010904//EN"
 "http://www.w3.org/TR/2001/REC-SVG-20010904/DTD/svg10.dtd">
<svg version="1.0" xmlns="http://www.w3.org/2000/svg"
 width="32.000000pt" height="32.000000pt" viewBox="0 0 32.000000 32.000000"
 preserveAspectRatio="xMidYMid meet">

<g transform="translate(0.000000,32.000000) scale(0.100000,-0.100000)"
fill="#000000" stroke="none">
<path d="M10 306 c-6 -8 -10 -25 -8 -38 3 -23 4 -23 158 -23 154 0 155 0 158
23 7 46 -10 52 -158 52 -108 0 -140 -3 -150 -14z m50 -26 c0 -5 -4 -10 -10
-10 -5 0 -10 5 -10 10 0 6 5 10 10 10 6 0 10 -4 10 -10z m40 0 c0 -5 -4 -10
-10 -10 -5 0 -10 5 -10 10 0 6 5 10 10 10 6 0 10 -4 10 -10z m180 0 c0 -5 -20
-10 -45 -10 -25 0 -45 5 -45 10 0 6 20 10 45 10 25 0 45 -4 45 -10z"/>
<path d="M7 224 c-12 -13 -8 -199 5 -212 18 -18 282 -17 297 2 8 9 11 48 9
112 l-3 99 -151 3 c-82 1 -153 -1 -157 -4z m162 -96 c-22 -56 -27 -64 -33 -57
-6 7 36 109 45 109 5 0 -1 -24 -12 -52z m-58 8 c-8 -10 -9 -16 -1 -21 5 -3 10
-10 10 -16 0 -5 -9 -4 -20 3 -25 16 -25 27 -3 44 22 15 30 10 14 -10z m129
-11 c0 -6 -9 -16 -20 -23 -21 -13 -27 -3 -9 15 8 8 8 13 0 17 -6 4 -11 11 -11
17 0 5 9 4 20 -3 11 -7 20 -17 20 -23z"/>
</g>
</svg>
